<svg xmlns="http://www.w3.org/2000/svg" viewBox="0 0 200 200">
  <!-- Dark background -->
  <rect width="200" height="200" fill="#1D1D1F" rx="40"/>
  
  <!-- Outer aluminum frame -->
  <rect x="30" y="30" width="140" height="140" fill="none" stroke="#A8A9AD" stroke-width="8" rx="8"/>
  
  <!-- Inner glass panes with gradient effect -->
  <!-- Top-left glass pane -->
  <rect x="40" y="40" width="55" height="60" fill="#E8F4F8" stroke="#5B9DB3" stroke-width="2" rx="2"/>
  <ellipse cx="50" cy="50" rx="8" ry="6" fill="#B8E0F0" opacity="0.6"/>
  
  <!-- Top-right glass pane -->
  <rect x="105" y="40" width="55" height="60" fill="#E8F4F8" stroke="#5B9DB3" stroke-width="2" rx="2"/>
  <ellipse cx="115" cy="50" rx="8" ry="6" fill="#B8E0F0" opacity="0.6"/>
  
  <!-- Bottom-left glass pane -->
  <rect x="40" y="110" width="55" height="60" fill="#E8F4F8" stroke="#5B9DB3" stroke-width="2" rx="2"/>
  <ellipse cx="50" cy="120" rx="8" ry="6" fill="#B8E0F0" opacity="0.6"/>
  
  <!-- Bottom-right glass pane -->
  <rect x="105" y="110" width="55" height="60" fill="#E8F4F8" stroke="#5B9DB3" stroke-width="2" rx="2"/>
  <ellipse cx="115" cy="120" rx="8" ry="6" fill="#B8E0F0" opacity="0.6"/>
  
  <!-- Aluminum muntins (dividers) -->
  <line x1="100" y1="35" x2="100" y2="165" stroke="#A8A9AD" stroke-width="4"/>
  <line x1="35" y1="100" x2="165" y2="100" stroke="#A8A9AD" stroke-width="4"/>
  
  <!-- Glass shine/reflection effect on panes -->
  <rect x="42" y="42" width="20" height="15" fill="white" opacity="0.3" rx="2"/>
  <rect x="107" y="42" width="20" height="15" fill="white" opacity="0.3" rx="2"/>
</svg>